<svg xmlns="http://www.w3.org/2000/svg" viewBox="0 0 62.96 123.22"><defs><style>.cls-1{fill:#ff8e0a;}.cls-2{fill:#32187c;}.cls-3{fill:#ffac52;}.cls-4{fill:#1f0d52;}.cls-5{fill:#f29130;}.cls-6{fill:#6b5ae4;}.cls-7{fill:#f88;}.cls-8{fill:#e55773;}.cls-9{fill:#00b6d9;}.cls-10{fill:#fff;}.cls-11{fill:#f5f5f5;}.cls-12,.cls-16,.cls-40{font-size:0.33px;fill:#1d1d1b;}.cls-12{font-family:Poppins-Medium, Poppins;font-weight:500;}.cls-13{font-family:MyriadPro-Regular, Myriad Pro;}.cls-13,.cls-15{font-weight:400;}.cls-14,.cls-15,.cls-40{font-family:Poppins-Regular, Poppins;}.cls-16{font-family:Poppins-Bold, Poppins;}.cls-16,.cls-41{font-weight:700;}.cls-17{font-family:MyriadPro-Bold, Myriad Pro;}.cls-18,.cls-21,.cls-24,.cls-26,.cls-28{font-size:0.43px;}.cls-18,.cls-21,.cls-26,.cls-28,.cls-29{fill:#ed7103;}.cls-18,.cls-21,.cls-24,.cls-26,.cls-28,.cls-36,.cls-39{font-family:Montserrat-SemiBold, Montserrat;font-weight:600;}.cls-19{letter-spacing:-0.01em;}.cls-20{letter-spacing:-0.04em;}.cls-21{letter-spacing:-0.01em;}.cls-22{letter-spacing:-0.02em;}.cls-23,.cls-28{letter-spacing:-0.01em;}.cls-24{fill:#3c3c3b;}.cls-25{letter-spacing:-0.01em;}.cls-26{letter-spacing:-0.01em;}.cls-27{letter-spacing:-0.04em;}.cls-30,.cls-36,.cls-37,.cls-39{font-size:0.32px;fill:#20201f;}.cls-30,.cls-37{font-family:Montserrat-Regular, Montserrat;}.cls-30{letter-spacing:0.01em;}.cls-31{letter-spacing:-0.01em;}.cls-32{letter-spacing:0.01em;}.cls-33{letter-spacing:-0.01em;}.cls-34{letter-spacing:-0.05em;}.cls-35{letter-spacing:-0.01em;}.cls-38{letter-spacing:-0.02em;}.cls-39{letter-spacing:0em;}.cls-41{font-size:0.86px;fill:#12100b;font-family:Montserrat-Bold, Montserrat;}.cls-42{letter-spacing:-0.02em;}.cls-43{fill:#00a4c3;}.cls-44{fill:#ffae00;}.cls-45{fill:#ffa800;}</style></defs><g id="Layer_2" data-name="Layer 2"><g id="layer_1-2" data-name="layer 1"><path class="cls-1" d="M25.79.81c-.49,1.59,3.51,5,8.94,7.59S45,11.81,45.47,10.22s-3.51-5-8.94-7.58S26.29-.78,25.79.81Z"></path><path class="cls-2" d="M51.87,18.76a6.47,6.47,0,0,0-1.17-1,13.36,13.36,0,0,1-2.29-1.85,7.22,7.22,0,0,0-2.61-1.27c-2.57-.95-5.08-2.74-5.22-5.63a5.89,5.89,0,0,0-1.39-3.61.46.46,0,0,0-.33-.19.46.46,0,0,0-.52-.12c-2.6,1-5.53,2.57-7,5-1.57,2.69-3.59,6.54-3.15,9.79.12.94.29,1.5,1.13,1.9,1.62.76,4,.82,5.75,1.18l13.57,2.77c1.94.39,5.34,1.21,6.45-1.13C56.64,21.49,53.59,20.46,51.87,18.76Z"></path><path class="cls-3" d="M6,40.84a4.26,4.26,0,0,1,1.39-1.21,1.5,1.5,0,0,1,1.19.06,9.4,9.4,0,0,1,3.84,3.47c-.68-.3-2.2-.76-3-1.08-.28-.1-.53-.28-.81-.4-1-.42-1,0-1.68.25a.92.92,0,0,1-1-.21C5.65,41.39,5.81,41.09,6,40.84Z"></path><path class="cls-3" d="M60.43,114.72,57,116.49s-2.37-3.47-4.45-6.38-15.26-17-15.26-17c-4.25-6.35,1.62-17.82,1.62-17.82l9.74,3.2s-2.27,6.16-2.08,6.43l1,1.42a30.31,30.31,0,0,1,4.66,8.93c.79,2.44,4,9.93,6.14,14.87C59.58,112.79,60.43,114.72,60.43,114.72Z"></path><path class="cls-3" d="M29.66,76.13s-.92,10.72-1.54,13.31A6.52,6.52,0,0,0,28,90.51a.78.78,0,0,1,0,.14C27.66,93,25.22,99.82,21,115.44c0,.15-.08.3-.11.44a41.05,41.05,0,0,0-1,5.16l-3.67-1.63s.45-3.45.8-7-.27-22.86-.27-22.86c1-7.57,7.66-22.23,7.66-22.23Z"></path><path class="cls-4" d="M59.35,111.94s3.43,1.17,3.61,3.93a120.13,120.13,0,0,1-10,6.74s-3.37-1.14-1.31-3.07a49,49,0,0,0,4.22-4.72S59,114.93,59.35,111.94Z"></path><path class="cls-4" d="M20.38,118.21s1,3.21-1,5c0,0-8.26-2.36-11.21-3.74,0,0-1.12-3.29,1.61-2.85s6.73.89,6.73.89A2.72,2.72,0,0,0,20.38,118.21Z"></path><path class="cls-5" d="M52.28,95.24a30.31,30.31,0,0,0-4.66-8.93,3.15,3.15,0,0,0-1.56.22.5.5,0,0,0-.7.45.49.49,0,0,0,.16.49,52.93,52.93,0,0,0,5.73,10.19A70.37,70.37,0,0,1,57.59,110a.5.5,0,0,0,.83.16C56.27,105.17,53.07,97.68,52.28,95.24Z"></path><path class="cls-5" d="M22.93,89.14c-.4-.1-.64.32-.56.66s.2.86.28,1.29a19,19,0,0,0-2.23-2c-.5-.39-1.15.38-.64.77a16.5,16.5,0,0,1,3.09,2.86c.61,7.22-2.9,14.36-2.32,21.67,0,.29.17,1.35.37,1.47,0-.14.07-.29.11-.44C25.22,99.82,27.66,93,27.94,90.65,26.52,89.71,24.39,89.49,22.93,89.14Z"></path><path class="cls-6" d="M38.62,61.86c-.28.75-.59,1.54-.9,2.35-.46,1.17-1,2.85-1.55,4.82a207.5,207.5,0,0,0-4.7,20.58c0,.22,0,.42-.06.58l-.36.09c-1.52.39-2.92.76-4.25,1-4.49,1-8.17,1-12.53-2.32.09-9.5,4.5-34.58,8-42.09,3.32-7.14,16.57,5.84,18.11,7.59C41,55.17,40,58.13,38.62,61.86Z"></path><path class="cls-2" d="M35.26,58.5a.43.43,0,0,0,0-.61l0,0a.47.47,0,0,0-.32-.28c-1.51-1.33-3.84-2.76-5.47-.86a4.42,4.42,0,0,0-.8,2.66,63.5,63.5,0,0,0,.08,6.76,31.74,31.74,0,0,1-.1,7.42c-.34,1.7-.86,3.32-1.06,5.05-.51,4.19-.54,8.47-.72,12.7,1.33-.28,2.73-.65,4.25-1a4.69,4.69,0,0,0,.42-.67A207.5,207.5,0,0,1,36.17,69C36.11,65.5,35.45,62,35.26,58.5Z"></path><path class="cls-6" d="M51,84.21A11.34,11.34,0,0,1,46.76,89c-3.45,2.13-7.91,2.17-12.23,1.07-1.66-14.66-2.1-32.64-2.19-36.5a12.84,12.84,0,0,1,.81-2.63c3.59-4.37,8.11-6.87,10.82-7.19,1.07-.13,1.85.08,2.19.64a40.57,40.57,0,0,1,2.63,5.14c.07.16.13.32.19.48a35.37,35.37,0,0,1,2.44,11.75C51.8,68.55,51,75.9,51,84.21Z"></path><path class="cls-2" d="M51.42,61.74C50,65.17,46.78,68,46.35,71.87c-.32,2.94.65,5.8.77,8.72s-1.55,5.56-.42,8.27l.06.12A11.34,11.34,0,0,0,51,84.21C51,75.9,51.8,68.55,51.42,61.74Z"></path><path class="cls-3" d="M25.15,30.71a25.83,25.83,0,0,1-4.93,1.73c-4.11,1-9.79,1.42-13-2.74-2.07-2.54-2.92-8.06-2.9-8,.67.27,3.12-1.47,3.12-1.47a24.71,24.71,0,0,0,5.72,4.65c.19.08,11.37-3.59,12-3.59C31.22,21.29,26.77,29.77,25.15,30.71Z"></path><path class="cls-5" d="M20,31.66c-1.64-.54-3.37-.18-5.08-.38-2.74-.33-4.47-1.12-6.08-3.45a24.24,24.24,0,0,1-3-5.69c-.74-2-1.07-4.2-2-6.19a.5.5,0,0,0-.53-.29.61.61,0,0,0-.3-.08c.47,3.16,2,11.58,4.1,14.12,3.22,4.16,8.9,3.75,13,2.74A.51.51,0,0,0,20,31.66Z"></path><path class="cls-7" d="M31.41,25.49c-.21,1.44-2.51,3.13-4.67,4.84-.33.26-.66.52-1,.78a17.26,17.26,0,0,0-1.89,1.75c-3.07-1.62-4.43-5.8-3.93-11.25a18.14,18.14,0,0,1,10-4.86c.47-.09.92-.15,1.37-.2a22.34,22.34,0,0,1,3.2-.13C38.18,16.53,31.68,23.63,31.41,25.49Z"></path><path class="cls-8" d="M31.22,17c-.36.32-.72.66-1.08,1-3.06,3.37-5.81,7.9-3.4,12.3-.33.26-.66.52-1,.78-1.35-1.48-3.46-6.09-3.26-7.73.34-2.93,6.76-6.34,7-6.54.47-.09,1.42-.24,1.87-.29A.4.4,0,0,1,31.22,17Z"></path><path class="cls-7" d="M51.31,48.67a18.87,18.87,0,0,1-5.43,1.94C34.64,52.86,20,47.42,20,47.42s3.23-4.88,5.94-10c.26-.47.5-.94.74-1.42,1.19-2.36.93-3.91.21-5.29-1-1.9-2.83-3.46-2.95-6.35-.2-5,10.43-9.16,10.43-9.16,15.94-.95,12.17,8.4,10.65,16-.14.69-.26,1.36-.34,2,0,.14,0,.29,0,.43s0,.37,0,.56C44.26,41.61,51.31,48.67,51.31,48.67Z"></path><path class="cls-8" d="M44.55,34.16c0-.19,0-.37,0-.56-.59-.93-1.22-1.85-1.89-2.73-.39-.51-1.22.06-.83.57a1.88,1.88,0,0,1,.16.23c.82,2.53.22,5.07.35,7.66a21.09,21.09,0,0,0,1.74,6.5c.44,1.11.92,3.53,1.76,4.78a18.87,18.87,0,0,0,5.43-1.94S44.26,41.61,44.55,34.16Z"></path><path class="cls-8" d="M40.89,29.45a17.55,17.55,0,0,0,3.66,4.7c0-.33,0-.66.08-1,.08-.65.2-1.32.34-2a10.61,10.61,0,0,0-2.21-2.79c-2.9-2.74-2.65-9.47-2.65-9.47C39.45,22.25,39.77,27.38,40.89,29.45Z"></path><path class="cls-3" d="M32.66,13v2.82s-.76,1.39,0,1.54c1.67.33,4.07-2.27,4.07-2.27V11.34Z"></path><path class="cls-5" d="M36.73,13.74V11.59s-2.07,2-4.07,2.09C32.66,13.68,35.07,14.85,36.73,13.74Z"></path><path class="cls-3" d="M31.66,4.8a22.18,22.18,0,0,0-1.87,5.87c-.27,2,3.41,4.67,6.41,1.83s2.17-7.16,2.17-7.16Z"></path><path class="cls-2" d="M30.21,4.69c.21-.13.48-.13.67-.26.61-.39.36-.58.71-1a2.39,2.39,0,0,1,1-.71,6,6,0,0,1,3.46,0,.42.42,0,0,1,.26.65,5.14,5.14,0,0,1,2.75,2,5.18,5.18,0,0,1,.1,5.19c-.74,1.13-2.13,2-2.87.56a6.07,6.07,0,0,1-.39-3.42,5.06,5.06,0,0,0,0-1.17,3,3,0,0,0-2.3-1.38c-.22.23-.42.57-.63.79a3.2,3.2,0,0,1-1.13.8,1.68,1.68,0,0,1-2.06-.34A1.21,1.21,0,0,1,30.21,4.69Z"></path><path class="cls-3" d="M35.63,8s1.21-.57,1.45.4A1,1,0,0,1,36,9.79C35.5,9.61,35.35,8.42,35.63,8Z"></path><path class="cls-8" d="M32.08,31.88c-1.7-.65-3.57-.4-5.24-1.18.72,1.38,1,2.93-.21,5.29-.24.48-.48.95-.74,1.42A37,37,0,0,1,30.08,35c.76-.31,2.74-.82,3-1.78C33.26,32.48,32.63,32.09,32.08,31.88Z"></path><path class="cls-7" d="M46.57,34.56c-.76-.73-5.72-5.74-6.46-10.43-.34-2.14-.74-7,1.92-7.61,4.25-1,9.94,5.19,13.86,9.85A13.43,13.43,0,0,1,46.57,34.56Z"></path><path class="cls-9" d="M24.47,37.19s-2-2.43-.66-3.57c1.53-1.32,1.12-2.36.84-3.37a2.56,2.56,0,0,1,1.86-3.13c1-.24.19-1.93.34-2.83.23-1.42,2.44-2.45,3.07-.11.37,1.34-1.77,2.13-1,3.51s.38,3.3-.52,3.74c-2,1,.3,2.83-.36,4.25A3,3,0,0,1,24.47,37.19Z"></path><path class="cls-9" d="M18.68,40.28s-8.06.43-8.73-3.36-.36-5.34-3.3-5.59a4.77,4.77,0,0,1-3.94-6.09c.67-2.11-1.09-4.32-2.16-5.94s-1-7.28,5.2-5.47c3.54,1,1.84,5.51,6.43,5.81s5.43,5.15,4.8,7.48c-.51,1.93,4.68,1.52,6,4.66S22.67,37.91,18.68,40.28Z"></path><path class="cls-10" d="M19.38,38.68a.25.25,0,0,1-.31-.11C16,32.9,5,19.34,4.89,19.21a.25.25,0,0,1,0-.35.26.26,0,0,1,.36,0c.11.14,11.1,13.73,14.23,19.44a.25.25,0,0,1-.1.34Z"></path><path class="cls-10" d="M11.47,27.31a.24.24,0,0,1-.22,0c-1.73-1-4.69-.28-4.72-.27a.25.25,0,1,1-.12-.48c.13,0,3.19-.8,5.09.31a.26.26,0,0,1,.09.35A.23.23,0,0,1,11.47,27.31Z"></path><path class="cls-10" d="M13.77,30.37h0a.24.24,0,0,1-.32-.14c-.84-2.21-.62-6.85-.61-7A.26.26,0,0,1,13.1,23a.25.25,0,0,1,.24.26c0,.05-.23,4.73.57,6.84A.26.26,0,0,1,13.77,30.37Z"></path><path class="cls-10" d="M16.71,34.47a.28.28,0,0,1-.25,0c-1.44-1.12-5.27-.36-5.31-.35a.26.26,0,0,1-.3-.2.24.24,0,0,1,.2-.29c.16,0,4.1-.81,5.72.44a.25.25,0,0,1,0,.35A.19.19,0,0,1,16.71,34.47Z"></path><rect class="cls-11" x="4.97" y="5.7" width="21.02" height="29.73" transform="translate(-4.14 3.9) rotate(-12.7)"></rect><text class="cls-12" transform="translate(13.78 18.48) rotate(-12.7)">FRONT-END DEVELOPER | CV-Template, INDIA | APR. 2016 - PRESENT<tspan class="cls-13"><tspan x="0" y="0.9" xml:space="preserve">•      </tspan><tspan class="cls-14" x="0.52" y="0.9">Enabling non-designers to create a professional designed </tspan></tspan><tspan class="cls-15"><tspan x="0" y="1.35" xml:space="preserve">      CV, with over 30000 users, a book publication, 2 government </tspan><tspan x="0" y="1.79" xml:space="preserve">      mentions and a publication in Knoxville news sentinel, </tspan><tspan x="0" y="2.24" xml:space="preserve">      CV-Template is making a fast progression in the online CV </tspan><tspan x="0" y="2.69" xml:space="preserve">      market.</tspan></tspan><tspan class="cls-13"><tspan x="0" y="3.14" xml:space="preserve">•      </tspan><tspan class="cls-14" x="0.52" y="3.14">Created and designed the complete website &amp; front-end </tspan></tspan><tspan class="cls-15"><tspan x="0" y="3.59" xml:space="preserve">      application in JavaScript (now V3) with an AJAX interface to </tspan><tspan x="0" y="4.04" xml:space="preserve">      Laravel (back-end).</tspan></tspan><tspan class="cls-13"><tspan x="0" y="4.48" xml:space="preserve">•      </tspan><tspan class="cls-14" x="0.52" y="4.48">Performed marketing tasks like SEO, backlink outreach, </tspan></tspan><tspan class="cls-15"><tspan x="0" y="4.93" xml:space="preserve">      reporter outreach, direct mail marketing, and A-B/multivari</tspan><tspan x="0" y="5.38" xml:space="preserve">      able testing.</tspan></tspan><tspan class="cls-13"><tspan x="0" y="5.83" xml:space="preserve">•      </tspan><tspan class="cls-14" x="0.52" y="5.83">Created #1 Online CV Builder with over 250,000 CV's created, </tspan></tspan><tspan class="cls-15"><tspan x="0" y="6.28" xml:space="preserve">      CV-Template has become one of the biggest online CV </tspan><tspan x="0" y="6.73" xml:space="preserve">      builders.</tspan></tspan><tspan x="0" y="7.62">FRONT-END DEVELOPER | WLDM, LTD, INDIA | JAN. 2011 - PRESENT</tspan><tspan class="cls-13"><tspan x="0" y="8.52" xml:space="preserve">•      </tspan><tspan class="cls-14" x="0.52" y="8.52">Designed and developed platforms like Breakzy (Vue.js), </tspan></tspan><tspan class="cls-15"><tspan x="0" y="8.97" xml:space="preserve">      Scanopy Organize Manual (Drupal 7) &amp; BrightMoments </tspan><tspan x="0" y="9.42" xml:space="preserve">      (education platforms).</tspan></tspan><tspan class="cls-13"><tspan x="0" y="9.87" xml:space="preserve">•      </tspan><tspan class="cls-14" x="0.52" y="9.87" xml:space="preserve">Designed &amp; developed dozens of custom WordPress web  </tspan></tspan><tspan class="cls-15"><tspan x="0" y="10.31" xml:space="preserve">      sites.</tspan></tspan><tspan class="cls-13"><tspan x="0" y="10.76" xml:space="preserve">•      </tspan><tspan class="cls-14" x="0.52" y="10.76">Specialised in interactive JavaScript experiences such as </tspan></tspan><tspan class="cls-15"><tspan x="0" y="11.21" xml:space="preserve">      various mini-games for the e-magazine drink inspiration and </tspan><tspan x="0" y="11.66" xml:space="preserve">      interactive slides for NewHeroes.com.</tspan></tspan></text><text class="cls-16" transform="translate(12.81 14.19) rotate(-12.7)">MSC IN MULTIMEDIA DESIGN | 2011<tspan class="cls-17" x="5.42" y="0" xml:space="preserve"> - </tspan><tspan x="5.66" y="0">2012</tspan><tspan class="cls-15"><tspan x="0" y="0.45">University of Manchester, UK</tspan></tspan><tspan x="0" y="1.35">BSC IN COMPUTER SCIENCES | 2008 - 2011</tspan><tspan class="cls-15"><tspan x="0" y="1.79">University of Edinburgh, Scotland</tspan></tspan></text><text class="cls-18" transform="translate(12.53 12.93) rotate(-12.7)">EDU<tspan class="cls-19" x="0.99" y="0">C</tspan><tspan class="cls-20" x="1.29" y="0">A</tspan><tspan x="1.6" y="0">TION</tspan></text><text class="cls-21" transform="translate(13.48 17.14) rotate(-12.7)">E<tspan class="cls-22" x="0.29" y="0">X</tspan><tspan class="cls-23" x="0.58" y="0">PERIENCE</tspan></text><text class="cls-24" transform="translate(11.6 8.81) rotate(-12.7)">FRON<tspan class="cls-20" x="1.3" y="0">T</tspan><tspan x="1.55" y="0">-END DE</tspan><tspan class="cls-19" x="3.47" y="0">V</tspan><tspan x="3.78" y="0">E</tspan><tspan class="cls-25" x="4.07" y="0">L</tspan><tspan x="4.33" y="0">OPER</tspan></text><text class="cls-26" transform="translate(3.79 10.24) rotate(-12.7)">PERSONAL INFO</text><text class="cls-26" transform="translate(5.02 15.68) rotate(-12.7)">PERSONAL SKILLS</text><text class="cls-18" transform="translate(5.87 19.49) rotate(-12.7)">SOFT<tspan class="cls-27" x="1.17" y="0">W</tspan><tspan x="1.65" y="0">ARE</tspan></text><text class="cls-18" transform="translate(7.16 25.18) rotate(-12.7)">SKILLS</text><text class="cls-28" transform="translate(8.45 30.93) rotate(-12.7)">ACHIEVEMENTS</text><text class="cls-18" transform="translate(16.64 31.17) rotate(-12.7)">CERTIFI<tspan class="cls-19" x="1.73" y="0">C</tspan><tspan class="cls-20" x="2.03" y="0">A</tspan><tspan x="2.34" y="0">TES</tspan></text><path class="cls-29" d="M4.82,12.73l-.27.06.16.09Z"></path><path class="cls-29" d="M4.72,12.9h0l-.17-.09,0,.22.3-.07,0-.22-.12.16Z"></path><path class="cls-29" d="M4.64,12.55a.34.34,0,0,0-.26.4.35.35,0,0,0,.41.26.34.34,0,0,0-.15-.66Zm.28.42h0l-.33.08h0l0-.26s0,0,0,0l.32-.08s0,0,0,0Z"></path><path class="cls-29" d="M4.59,11.3a.33.33,0,0,0-.46.1.33.33,0,1,0,.56.36.32.32,0,0,0,0-.25A.36.36,0,0,0,4.59,11.3Zm0,.37h0l0,0a.07.07,0,0,1-.07,0h-.1l-.08,0-.06,0a.18.18,0,0,1,0-.07.08.08,0,0,1,0-.09v0h0l.08.05s0,0,0,0h0l0,0a0,0,0,0,0,0,0l.06,0,.06,0s0,0,0,0l0,0h0l.07.05Z"></path><path class="cls-29" d="M5,14.09a0,0,0,0,0,0,.06s0,0,.06,0,0,0,0-.06S5,14.09,5,14.09Z"></path><path class="cls-29" d="M5,14a.12.12,0,0,0-.09.08.1.1,0,0,0,0,.12l0,0,.13.1.07-.14h0a0,0,0,0,0,0,0,.11.11,0,0,0,0-.11A.15.15,0,0,0,5,14Zm0,.2a.07.07,0,0,1-.09-.05A.08.08,0,0,1,5,14.07a.07.07,0,0,1,.09,0A.08.08,0,0,1,5,14.21Z"></path><path class="cls-29" d="M4.93,13.85a.33.33,0,1,0,.4.25A.33.33,0,0,0,4.93,13.85Zm.22.31v0l-.09.16H5l-.13-.1,0,0a.2.2,0,0,1,0-.15A.14.14,0,0,1,5,14a.15.15,0,0,1,.14,0A.13.13,0,0,1,5.15,14.16Z"></path><text class="cls-30" transform="translate(5.18 11.76) rotate(-12.7)">+<tspan class="cls-31" x="0.19" y="0">4</tspan><tspan class="cls-32" x="0.4" y="0">9</tspan><tspan class="cls-33" x="0.6" y="0">-23</tspan><tspan class="cls-34" x="1.08" y="0">7</tspan><tspan class="cls-35" x="1.26" y="0">-78</tspan><tspan class="cls-32" x="1.77" y="0">9-0</tspan><tspan class="cls-31" x="2.31" y="0">033</tspan></text><text class="cls-36" transform="translate(5.07 11.25) rotate(-12.7)">Phone</text><text class="cls-37" transform="translate(5.52 13.04) rotate(-12.7)">e.sambowole@gmail.com</text><text class="cls-36" transform="translate(5.4 12.54) rotate(-12.7)">Email</text><text class="cls-37" transform="translate(5.81 14.34) rotate(-12.7)">Ber<tspan class="cls-38" x="0.57" y="0">k</tspan><tspan x="0.76" y="0">eley Road, New Delhi</tspan></text><text class="cls-39" transform="translate(5.7 13.84) rotate(-12.7)">Address</text><text class="cls-40" transform="translate(6.12 20.75) rotate(-12.7)">Dreamweaver<tspan x="0" y="0.62">Flash</tspan><tspan x="0" y="1.24">HappyFox</tspan><tspan x="0" y="1.86">Hitachi HCP/HDI</tspan><tspan x="0" y="2.48">Oracle ZFS</tspan><tspan x="0" y="3.1">Python</tspan></text><text class="cls-40" transform="translate(7.41 26.46) rotate(-12.7)">Bootstrap<tspan x="0" y="0.59">Drupal</tspan><tspan x="0" y="1.17">JavaScript</tspan><tspan x="0" y="1.76">JQuery</tspan><tspan x="0" y="2.35">PHP</tspan><tspan x="0" y="2.93">Vue.js</tspan></text><text class="cls-40" transform="translate(5.21 16.68) rotate(-12.7)"><tspan xml:space="preserve">•    Good communication, typing   </tspan><tspan x="0" y="0.45" xml:space="preserve">     and speaking skills</tspan><tspan x="0" y="0.9" xml:space="preserve">•    Fluent in English; Basic Mandarin</tspan><tspan x="0" y="1.35" xml:space="preserve">•    Positive Attitude, Teamwork, </tspan><tspan x="0" y="1.79" xml:space="preserve">     Creative in Research</tspan></text><text class="cls-40" transform="translate(8.74 32.06) rotate(-12.7)">Created #1 Online CV Builder with <tspan x="0" y="0.45">over 550,000 CVs created, </tspan><tspan x="0" y="0.9">CV-Template has become one of </tspan><tspan x="0" y="1.35">the most prominent online CV </tspan><tspan x="0" y="1.79">builders worldwide.</tspan><tspan x="0" y="2.24">Co-founded lnterimlife. lnterimlife is </tspan><tspan x="0" y="2.69">a platform connecting freelancers </tspan><tspan x="0" y="3.14">with interim assignments.</tspan></text><text class="cls-40" transform="translate(16.9 32.31) rotate(-12.7)">CompTIA A+<tspan x="0" y="0.45">CompTIA Linux+</tspan><tspan x="0" y="0.9">CompTIA Network+</tspan><tspan x="0" y="1.35">ITIL Foundations</tspan><tspan x="0" y="1.79">Linux +</tspan><tspan x="0" y="2.24">LPI</tspan></text><text class="cls-40" transform="translate(20.59 31.48) rotate(-12.7)">MCSA<tspan x="0" y="0.45">CAN</tspan><tspan x="0" y="0.9">VMware Certified Professional (VCP)</tspan><tspan x="0" y="1.35">Cisco Certified Network Associate,</tspan><tspan x="0" y="1.79">Sun Certified System Administrator (SCSA)</tspan><tspan x="0" y="2.24">Microsoft Certified Systems Engineer (MSCE)</tspan></text><text class="cls-40" transform="translate(11.82 9.42) rotate(-12.7)">Designed and tested websites for clients through my <tspan x="0" y="0.48">company (WLDM) and founded CV-Template.com, a powerful </tspan><tspan x="0" y="0.97">online CV builder. Highly experienced in Java Script/jQuery/ </tspan><tspan x="0" y="1.45">AJAX and Vue.js; CSS/LESS/SCSS: CMS Drupal (7&amp;8) and </tspan><tspan x="0" y="1.93">WordPress; Testing tools such as Google </tspan><tspan x="0" y="2.42">Analytics/TagManager, Hotjar &amp; BrowserStack; and Photoshop </tspan></text><text class="cls-41" transform="translate(11.39 8.03) rotate(-12.7)">EMY SAMB<tspan class="cls-42" x="4.93" y="0">OW</tspan><tspan x="6.63" y="0">OLE</tspan></text><path class="cls-43" d="M22.29,39.25s-4.51-2-4.11-5-.07-4.52-1.38-5.86c-2-2-2.77-4.39-1.59-6.37,1-1.62.11-1.86-.39-3.37C14,16.25,18.39,12.9,21.44,16c1.73,1.78.17,3.53,1.63,4.94a5.75,5.75,0,0,1,1.08,6.32c-.72,2,2.88,4.16,3,6.87S25,38.64,22.29,39.25Z"></path><path class="cls-10" d="M23.33,37.66h0a.19.19,0,0,1-.26-.11,45.06,45.06,0,0,1-3.79-15.68.2.2,0,0,1,.2-.2.19.19,0,0,1,.2.19,44.94,44.94,0,0,0,3.76,15.54A.2.2,0,0,1,23.33,37.66Z"></path><path class="cls-10" d="M20.06,26.66h0a.21.21,0,0,1-.27-.09c-.64-1.21-3-2.16-3-2.17a.2.2,0,0,1-.11-.26.2.2,0,0,1,.26-.11c.1,0,2.52,1,3.23,2.36A.2.2,0,0,1,20.06,26.66Z"></path><path class="cls-10" d="M20.68,29.66a.2.2,0,0,1-.3-.18c0-1.37,1.92-5,2-5.11a.2.2,0,0,1,.27-.09.19.19,0,0,1,.08.27s-1.91,3.67-1.95,4.94A.21.21,0,0,1,20.68,29.66Z"></path><path class="cls-10" d="M22.6,35.85a.21.21,0,0,1-.27-.07c-.43-.66-2-.79-2.53-.79a.2.2,0,1,1,0-.4c.09,0,2.22,0,2.87,1a.21.21,0,0,1-.06.28Z"></path><path class="cls-10" d="M22.18,34.43a.18.18,0,0,1-.13,0,.2.2,0,0,1-.16-.23,9.94,9.94,0,0,1,1.79-2.68.2.2,0,1,1,.3.26,10.13,10.13,0,0,0-1.7,2.49A.21.21,0,0,1,22.18,34.43Z"></path><polygon class="cls-44" points="32.25 46.57 12.27 50.82 5.87 35.19 31.72 29.68 32.25 46.57"></polygon><path class="cls-1" d="M31.58,30.87,6.48,36.22a1.13,1.13,0,0,1-1.34-.87h0A1.13,1.13,0,0,1,6,34l25.1-5.35a1.13,1.13,0,0,1,1.34.88h0A1.12,1.12,0,0,1,31.58,30.87Z"></path><path class="cls-3" d="M29.32,39.45c-1.53-.59-4-.79-5.3.49-.63.62-.24,1,.51.75,1.46-.54,2.63-.47.41.21-.45.14-1.3.64-1.2,1,.22.71,1.75,0,2.46-.2.63.13-.95.9-1.13,1.21-.79,1.39,2.19,0,2.37.18.49.44-1.67,1-.69,1.47.74.32,2.46-1.05,3.13-1.15s1,.24,1.34-.29C32,41.9,30,39.7,29.32,39.45Z"></path><path class="cls-3" d="M29.91,39.86c-.4-.49-1.38-1.7-2-1.89-.34-.11-.82,0-.6.42a2,2,0,0,0,.7.7c.23.15.43.38.66.52A3.78,3.78,0,0,0,29.91,39.86Z"></path><path class="cls-3" d="M9.85,45.34a.14.14,0,0,1,0-.14A.89.89,0,0,1,9.24,45a.75.75,0,0,1-.09-.72s0,0,0,0a1.2,1.2,0,0,1-1.27-.41c-.25-.39,0-.7.27-1a2.33,2.33,0,0,1-.53,0c-.68-.11-.72-.85-.51-1.29a.18.18,0,0,1,.16-.1l0,0A5.7,5.7,0,0,1,8.61,41a2.35,2.35,0,0,1,1.12-.09c.62.2.34.82.09,1.19.42-.18.89-.24,1.13.34a1,1,0,0,1-.08,1,1.38,1.38,0,0,1,.67,0c.56.15.42.77.22,1.08a1.41,1.41,0,0,1-.36.37l.11,0c.3.22.15.68,0,.88A1,1,0,0,1,9.85,45.34Z"></path><path class="cls-1" d="M33.63,1.85s2.25-2.06,4.75-1,4,4.07,3.27,5.53Z"></path><path class="cls-45" d="M35.94,4.13C31.38,2,27.28,1.32,26.45,2.62A2.19,2.19,0,0,1,25.79.81c.5-1.59,5.3-.77,10.74,1.83s9.43,6,8.94,7.58c-.16.52-.27.73-1.19.77C44.54,9.36,40.61,6.36,35.94,4.13Z"></path><path class="cls-3" d="M29.91,39.86s.76,3.25.84,3.53c0,0,1,.6,2.76,1.4,4.33,2,14.32,4.14,21.12,2.63,6.64-1.48,5.06-14.32-.26-20.61,0,0,0,0-.06-.08-4.21-5-8.94,4.83-8.11,5.62a8.68,8.68,0,0,1,.95,1.15c1.71,2.38,3.55,6.48,3.05,6.79a12.58,12.58,0,0,1-3.58.76,60.35,60.35,0,0,1-7.87-.3C34.31,40.38,30.14,39.81,29.91,39.86Z"></path><path class="cls-5" d="M51.3,42.41c3.79-1.92.06-6.43-1.56-9a.5.5,0,0,0-.5-.75l-.13,0a.63.63,0,0,0-.48.12,5.46,5.46,0,0,0-1.48.65c1.71,2.38,3.55,6.48,3.05,6.79a12.58,12.58,0,0,1-3.58.76,60.35,60.35,0,0,1-7.87-.3C38.63,41,47.91,44.12,51.3,42.41Z"></path></g></g></svg>