<svg width="9" height="17" viewBox="0 0 9 17" fill="none" xmlns="http://www.w3.org/2000/svg">
<path d="M4.3479 0C5.24731 0.0112485 6.11299 0.157479 6.9337 0.539928C8.87868 1.47355 9.54199 3.48704 8.53016 5.39929C8.08045 6.24292 7.42838 6.91784 6.68637 7.51401C6.484 7.68273 6.28163 7.84021 6.09051 8.02019C5.60707 8.47013 5.35974 9.03256 5.32601 9.69622C5.32601 9.79746 5.31476 9.88744 5.31476 9.98868C5.31476 10.4049 5.37098 10.8436 4.91003 11.0798C4.39287 11.3385 3.84198 11.361 3.30234 11.136C2.9763 11.001 2.87511 10.6861 2.84139 10.3599C2.68399 8.7401 3.09997 7.35653 4.43784 6.33291C4.82009 6.04045 5.20234 5.72549 5.5621 5.38804C5.95559 5.01684 6.22542 4.55565 6.22542 3.98197C6.22542 3.44205 5.98932 3.04835 5.52838 2.77838C4.4266 2.14847 2.98754 2.47467 2.26802 3.50954C1.79583 4.1957 1.35736 4.34193 0.705288 4.03822C0.109429 3.757 -0.137906 3.14958 0.0757043 2.44093C0.390498 1.41731 1.14375 0.809893 2.07689 0.404946C2.8189 0.112485 3.57216 0 4.3479 0Z" fill="#666666"/>
<path d="M2.39185 14.4431C2.40309 13.5207 3.16758 12.7783 4.08947 12.8008C5.0001 12.8121 5.7421 13.5882 5.73086 14.5106C5.71962 15.4217 4.95513 16.1866 4.04449 16.1754C3.12261 16.1754 2.38061 15.388 2.39185 14.4431Z" fill="#666666"/>
</svg>
