<svg width="24" height="25" viewBox="0 0 24 25" fill="none" xmlns="http://www.w3.org/2000/svg">
<path d="M21.6061 12.1141C21.5311 8.99503 20.4514 6.55075 18.2771 4.61633C17.8947 4.27893 17.7072 3.87405 17.8122 3.3717C17.9022 2.92933 18.1796 2.62192 18.622 2.48696C19.0868 2.3445 19.4842 2.47196 19.8366 2.78687C21.4261 4.18895 22.5883 5.88345 23.3006 7.88536C25.7598 14.8358 21.4936 22.3486 14.2658 23.7881C9.36973 24.7628 4.12878 22.416 1.7145 18.0373C-0.812246 13.4562 -0.53483 8.95754 2.47177 4.66881C2.93664 4.00901 3.54396 3.44667 4.11379 2.86935C4.67612 2.31451 5.4259 2.337 5.89826 2.86935C6.36312 3.38669 6.29564 4.12897 5.72581 4.63882C4.7511 5.50856 3.96383 6.52076 3.4015 7.70541C0.642321 13.5012 4.05381 20.3317 10.3894 21.4413C15.6379 22.3636 20.5564 18.8396 21.4486 13.5462C21.5386 13.0063 21.5686 12.4515 21.6061 12.1141Z" fill="white"/>
<path d="M13.2086 6.04089C13.2086 7.63042 13.2161 9.22744 13.2086 10.817C13.2011 11.7017 12.4213 12.279 11.6266 12.0016C11.1692 11.8442 10.8543 11.4318 10.8243 10.9519C10.8168 10.8695 10.8168 10.787 10.8168 10.697C10.8168 7.58543 10.8093 4.47386 10.8243 1.36978C10.8243 1.11486 10.8768 0.837438 10.9818 0.612505C11.2142 0.132648 11.7765 -0.0922853 12.2939 0.0351768C12.8262 0.162639 13.2011 0.620003 13.2011 1.20483C13.2086 2.81685 13.2086 4.42887 13.2086 6.04089Z" fill="white"/>
</svg>
