<svg width="15" height="17" viewBox="0 0 15 17" fill="none" xmlns="http://www.w3.org/2000/svg">
<path d="M7.64469 14.492C5.80633 14.492 3.96798 14.492 2.12963 14.492C1.33765 14.492 0.72327 14.0168 0.564874 13.268C0.473677 12.8408 0.560074 12.4424 0.804868 12.0776C1.18406 11.5113 1.55845 10.9497 1.92804 10.3785C1.98083 10.2969 2.01444 10.1865 2.01444 10.0905C2.01924 8.69855 2.01443 7.30178 2.01923 5.90982C2.02403 3.4283 3.53119 1.32116 5.88313 0.524378C8.97905 -0.531591 12.4254 1.41235 13.1117 4.61386C13.2029 5.04585 13.2461 5.49224 13.2557 5.93862C13.2749 7.32578 13.2605 8.71294 13.2653 10.1001C13.2653 10.1913 13.2989 10.2969 13.3469 10.3737C13.7165 10.9353 14.0909 11.4969 14.4653 12.0536C14.8157 12.5768 14.8685 13.124 14.5709 13.6808C14.2733 14.2376 13.7789 14.492 13.1549 14.492C11.3214 14.492 9.48304 14.492 7.64469 14.492Z" fill="#666666"/>
<path d="M7.5009 16.7479C7.34251 16.7143 7.17931 16.6903 7.02571 16.6423C6.35853 16.4455 5.88335 16.0279 5.59056 15.3943C5.57136 15.3463 5.55696 15.2983 5.53296 15.2407C6.94412 15.2407 8.33608 15.2407 9.75203 15.2407C9.62724 15.5959 9.43045 15.8887 9.16645 16.1335C8.80646 16.4647 8.38408 16.6615 7.89929 16.7191C7.86089 16.7239 7.82249 16.7383 7.78409 16.7479C7.68809 16.7479 7.5969 16.7479 7.5009 16.7479Z" fill="#666666"/>
</svg>
