<svg width="17" height="17" viewBox="0 0 17 17" fill="none" xmlns="http://www.w3.org/2000/svg">
<path d="M0 6.45234C0.0424241 6.16598 0.0742435 5.89022 0.127274 5.60386C0.360606 4.36295 0.901515 3.27052 1.73939 2.32658C2.67272 1.28719 3.80757 0.555372 5.16514 0.226584C7.27574 -0.293113 9.22725 0.0780988 10.9772 1.37204C12.4939 2.49628 13.4166 4.01295 13.6818 5.87961C13.9575 7.76749 13.5015 9.49628 12.3454 11.0236C12.2924 11.0978 12.2394 11.172 12.1651 11.2569C12.2075 11.2993 12.25 11.3523 12.2924 11.3948C13.5545 12.6569 14.8166 13.919 16.0787 15.1811C16.3863 15.4887 16.4181 15.8599 16.153 16.1251C16.0681 16.2099 15.9303 16.2629 15.8242 16.3266C15.7394 16.3266 15.6545 16.3266 15.5697 16.3266C15.4106 16.2099 15.2409 16.1145 15.103 15.9872C13.8621 14.7569 12.6318 13.5266 11.4015 12.2963C11.3591 12.2539 11.3166 12.2114 11.2636 12.1584C11.1788 12.222 11.1045 12.2751 11.0409 12.3281C9.25906 13.6432 7.28634 14.0463 5.14393 13.516C3.81817 13.1872 2.70454 12.4766 1.78181 11.469C0.912117 10.5145 0.360606 9.40082 0.127274 8.1387C0.0742435 7.86295 0.0424215 7.58719 0.0106034 7.31143C-2.58952e-06 7.02507 0 6.7387 0 6.45234ZM12.4727 6.87658C12.4727 3.79022 9.94846 1.27658 6.87271 1.27658C3.78635 1.27658 1.27272 3.79022 1.27272 6.87658C1.26212 9.96294 3.79696 12.4872 6.88332 12.4872C9.96967 12.4766 12.4833 9.96294 12.4727 6.87658Z" fill="black"/>
</svg>
