<?xml version="1.0" encoding="iso-8859-1"?>
<!-- Generator: Adobe Illustrator 19.0.0, SVG Export Plug-In . SVG Version: 6.00 Build 0)  -->
<svg version="1.1" id="Layer_1" xmlns="http://www.w3.org/2000/svg" xmlns:xlink="http://www.w3.org/1999/xlink" x="0px" y="0px"
	 viewBox="0 0 512 512"  xml:space="preserve">
<g>
	<g>
		<path d="M510.788,81.04l-79.88-79.868C430.16,0.42,429.124,0,428.064,0h-13.256h-10.492h-24H152.232h-24H64v19.852v180
			c0,2.164,1.676,4.148,3.844,4.148h60.708c-0.188,0-0.552-2.788-0.552-4.148V20h24v179.852c0,2.164,2.064,4.148,4.232,4.148
			h220.084c2.164,0,3.684-1.984,3.684-4.148V20h24v179.852C404,215.288,391.752,228,376.312,228h-220.08H67.844
			C52.408,228,40,215.288,40,199.852V0H20.232C9.204,0,0,8.976,0,20v471.696C0,502.728,9.204,512,20.232,512H40V267.852
			C40,261.22,45.216,256,51.844,256h408.468c6.628,0,11.688,5.22,11.688,11.852V512h19.924c11.028,0,20.076-9.272,20.076-20.304
			V83.868C512,82.804,511.54,81.788,510.788,81.04z M356,180h-68V40h68V180z"/>
	</g>
</g>
<g>
	<g>
		<path d="M64,280v232h384V280H64z M411.936,464h-312.2c-6.628,0-12-5.376-12-12c0-6.632,5.372-12,12-12H411.94
			c6.628,0,12,5.368,12,12C423.936,458.624,418.568,464,411.936,464z M411.936,400h-312.2c-6.628,0-12-5.372-12-12
			c0-6.624,5.372-12,12-12H411.94c6.628,0,12,5.376,12,12C423.936,394.628,418.568,400,411.936,400z M411.936,336h-312.2
			c-6.628,0-12-5.368-12-12c0-6.624,5.372-12,12-12H411.94c6.628,0,12,5.376,12,12C423.936,330.632,418.568,336,411.936,336z"/>
	</g>
</g>
</svg>
